# xmcd
#
# Track frame offsets:
#	150
#	12095
#	29726
#	48009
#	62372
#	78967
#	92738
#	106432
#	123278
#	138614
#
# Disc length: 2061 seconds
#
# Revision: 0
# Processed by: cddbd v1.5.2PL0 Copyright (c) Steve Scherf et al.
# Submitted via: EasyCDDAExtractor 10.0.6.1
#
DISCID=78080b0a
DTITLE=Banda Desafio Tchê - Cada Vez Melhor
DYEAR=2007
DGENRE=Gaúcha
TTITLE0=Abra o Teu Coração
TTITLE1=Rumo ao Calvário
TTITLE2=Hino da Vitória
TTITLE3=Escute Agora
TTITLE4=Então Vem
TTITLE5=Rocha Firme
TTITLE6=Corações
TTITLE7=Deixa-me Viver
TTITLE8=O Povo de Deus
TTITLE9=Tum... Tum... Tum...
EXTD=
EXTT0=
EXTT1=
EXTT2=
EXTT3=
EXTT4=
EXTT5=
EXTT6=
EXTT7=
EXTT8=
EXTT9=
PLAYORDER=
